<svg width="24" height="24" viewBox="0 0 24 24" fill="none" xmlns="http://www.w3.org/2000/svg">
<path d="M21.397 10.0415H20.625V10H12V14H17.416C16.6259 16.3285 14.5027 18 12 18C8.82458 18 6.25002 15.3135 6.25002 12C6.25002 8.6865 8.82458 6 12 6C13.4658 6 14.7993 6.577 15.8147 7.5195L18.5253 4.691C16.8137 3.0265 14.5243 2 12 2C6.70762 2 2.41669 6.4775 2.41669 12C2.41669 17.5225 6.70762 22 12 22C17.2924 22 21.5834 17.5225 21.5834 12C21.5834 11.3295 21.5172 10.675 21.397 10.0415Z" fill="#FFC107"/>
<path d="M3.52161 7.3455L6.67021 9.755C7.52217 7.554 9.58546 6 12 6C13.4658 6 14.7993 6.577 15.8146 7.5195L18.5253 4.691C16.8137 3.0265 14.5242 2 12 2C8.31902 2 5.12681 4.1685 3.52161 7.3455Z" fill="#FF3D00"/>
<path d="M12 22C14.4754 22 16.7246 21.0115 18.4252 19.404L15.4591 16.785C14.4646 17.5742 13.2494 18.001 12 18C9.50738 18 7.3909 16.3415 6.59357 14.027L3.46844 16.5395C5.05449 19.778 8.27545 22 12 22Z" fill="#4CAF50"/>
<path d="M21.3969 10.0415H20.625V10H12V14H17.416C17.0381 15.1082 16.3572 16.0766 15.4577 16.7855L15.4591 16.7845L18.4251 19.4035C18.2153 19.6025 21.5833 17 21.5833 12C21.5833 11.3295 21.5172 10.675 21.3969 10.0415Z" fill="#1976D2"/>
</svg>
