<svg width="24" height="24" viewBox="0 0 24 24" fill="none" xmlns="http://www.w3.org/2000/svg">
<path fill-rule="evenodd" clip-rule="evenodd" d="M20.4174 3.21975C20.7104 3.51275 20.7104 3.98775 20.4174 4.28075L4.6434 20.0537C4.4974 20.2007 4.3054 20.2738 4.1134 20.2738C3.9214 20.2738 3.7294 20.2007 3.5834 20.0537C3.2904 19.7607 3.2904 19.2867 3.5834 18.9937L5.55535 17.023C4.14153 15.7298 2.94222 13.9866 2.0615 11.934C1.9795 11.744 1.9795 11.53 2.0615 11.341C3.0825 8.97695 4.5205 7.01995 6.2205 5.68295C9.51333 3.077 13.8423 2.93867 17.2687 5.30828L19.3574 3.21975C19.6504 2.92675 20.1244 2.92675 20.4174 3.21975ZM20.0472 8.04075C20.7712 9.00175 21.4072 10.1127 21.9382 11.3387C22.0212 11.5287 22.0212 11.7448 21.9382 11.9338C19.8422 16.7908 16.1272 19.6898 12.0002 19.6898C11.0632 19.6898 10.1312 19.5378 9.2312 19.2388C8.8382 19.1078 8.6252 18.6828 8.7562 18.2898C8.8872 17.8958 9.3102 17.6867 9.7052 17.8147C10.4522 18.0637 11.2242 18.1897 12.0002 18.1897C15.4282 18.1897 18.5612 15.7478 20.4302 11.6368C19.9742 10.6378 19.4432 9.73275 18.8492 8.94275C18.6002 8.61175 18.6662 8.14075 18.9972 7.89175C19.3272 7.64275 19.7982 7.71075 20.0472 8.04075ZM7.1495 6.86095C5.7135 7.99095 4.4805 9.63695 3.5705 11.639C4.36394 13.3914 5.40632 14.8693 6.61705 15.9607L8.75486 13.8231C8.31993 13.1832 8.0859 12.4287 8.0859 11.6385C8.0859 9.47855 9.8419 7.72155 11.9999 7.72155C12.7829 7.72155 13.5488 7.95996 14.1865 8.39085L16.188 6.38945C13.3352 4.54522 9.86299 4.71346 7.1495 6.86095ZM15.2375 11.4615C15.6455 11.5345 15.9165 11.9246 15.8435 12.3326C15.5565 13.9256 14.2945 15.1896 12.7025 15.4796C12.6575 15.4876 12.6115 15.4916 12.5675 15.4916C12.2125 15.4916 11.8965 15.2376 11.8305 14.8756C11.7565 14.4686 12.0265 14.0775 12.4345 14.0035C13.4145 13.8255 14.1905 13.0476 14.3665 12.0666C14.4405 11.6596 14.8305 11.3915 15.2375 11.4615ZM11.9999 9.22155C10.6689 9.22155 9.5859 10.3055 9.5859 11.6385C9.5859 12.0239 9.67663 12.3959 9.84765 12.73L13.0933 9.48399C12.7591 9.31371 12.3833 9.22155 11.9999 9.22155Z" fill="black"/>
</svg>
